# Blender 4.1.1
# www.blender.org
o _SmallWoodenDoor.col
v -1.050000 -0.050000 0.050000
v -1.050000 -0.050000 -0.050000
v 0.050000 -0.050000 0.050000
v 0.050000 -0.050000 -0.050000
v 0.050000 2.000000 -0.050000
v -1.050000 2.000000 0.050000
v -1.050000 2.000000 -0.050000
v 0.050000 2.000000 0.050000
vn -1.0000 -0.0000 -0.0000
vn -0.0000 -0.0000 -1.0000
vn 1.0000 -0.0000 -0.0000
vn -0.0000 -0.0000 1.0000
vn -0.0000 -1.0000 -0.0000
vn -0.0000 1.0000 -0.0000
s 0
f 1//1 6//1 7//1 2//1
f 2//2 7//2 5//2 4//2
f 4//3 5//3 8//3 3//3
f 3//4 8//4 6//4 1//4
f 2//5 4//5 3//5 1//5
f 5//6 7//6 6//6 8//6
