# Blender 4.1.1
# www.blender.org
o _GateMyoujin.col
v -0.098783 -0.035765 1.201856
v -0.098082 3.115270 1.208101
v -0.095310 -0.038436 1.007453
v -0.104493 3.113120 0.994624
v 0.094938 -0.040132 1.198736
v 0.095004 3.119285 1.202294
v 0.096203 -0.042587 1.001616
v 0.099153 3.114024 0.999819
v -0.098481 -0.031399 -0.997895
v -0.100095 3.113192 -1.002189
v -0.097751 -0.037803 -1.190675
v -0.099347 3.112858 -1.199745
v 0.099864 -0.036796 -0.999684
v 0.101105 3.114015 -0.999654
v 0.098523 -0.038652 -1.203056
v 0.100629 3.107877 -1.195273
v 0.128335 3.034452 -1.401073
v -0.046890 2.501496 1.352466
v -0.053869 2.701227 1.336657
v -0.053109 2.500581 -1.345298
v -0.058977 2.704795 -1.334045
v 0.052426 2.502614 1.345717
v 0.057118 2.698912 1.337915
v 0.053327 2.500154 -1.345115
v 0.049703 2.699124 -1.332185
v -0.040894 2.687362 0.098756
v -0.049260 3.013573 0.117397
v -0.045076 2.691217 -0.098526
v -0.053271 3.012097 -0.125328
v 0.045032 2.692754 0.100990
v 0.049327 3.008407 0.123169
v 0.044015 2.691319 -0.096478
v 0.054363 3.010424 -0.122281
v -0.128771 3.027546 1.405814
v 0.132088 3.032740 1.396587
v -0.133490 3.033397 -1.401821
v -0.169910 3.513732 1.818053
v 0.175259 3.507681 1.817578
v -0.166887 3.510608 -1.826974
v 0.171544 3.504031 -1.816093
vn -1.0000 -0.0013 0.0072
vn -0.0016 -0.0023 -1.0000
vn 0.9999 -0.0005 0.0136
vn 0.0231 -0.0016 0.9997
vn -0.0218 -0.9997 0.0128
vn -1.0000 -0.0005 -0.0038
vn -0.0200 -0.0002 -0.9998
vn 1.0000 -0.0005 -0.0045
vn -0.0019 0.0007 1.0000
vn -0.0151 -0.9997 0.0209
vn -0.9995 -0.0318 0.0021
vn 0.0112 0.0601 -0.9981
vn 1.0000 -0.0027 -0.0012
vn 0.0264 0.0596 0.9979
vn 0.0034 -1.0000 0.0006
vn 0.0363 0.9993 0.0006
vn -0.9995 -0.0253 0.0185
vn 0.0251 -0.0820 -0.9963
vn 0.9997 -0.0230 0.0090
vn -0.0432 -0.0637 0.9970
vn 0.0084 -0.6638 -0.7479
vn 0.0119 -0.9999 -0.0014
vn 0.0185 0.9998 -0.0009
vn -0.9970 -0.0771 0.0002
vn 0.0112 -0.6550 0.7555
vn 0.9958 -0.0911 -0.0011
s 0
f 1//1 2//1 4//1 3//1
f 3//2 4//2 8//2 7//2
f 7//3 8//3 6//3 5//3
f 5//4 6//4 2//4 1//4
f 3//5 7//5 5//5 1//5
f 9//6 10//6 12//6 11//6
f 11//7 12//7 16//7 15//7
f 15//8 16//8 14//8 13//8
f 13//9 14//9 10//9 9//9
f 11//10 15//10 13//10 9//10
f 18//11 19//11 21//11 20//11
f 20//12 21//12 25//12 24//12
f 24//13 25//13 23//13 22//13
f 22//14 23//14 19//14 18//14
f 20//15 24//15 22//15 18//15
f 25//16 21//16 19//16 23//16
f 26//17 27//17 29//17 28//17
f 28//18 29//18 33//18 32//18
f 32//19 33//19 31//19 30//19
f 30//20 31//20 27//20 26//20
f 17//21 36//21 39//21 40//21
f 36//22 17//22 35//22 34//22
f 40//23 39//23 37//23 38//23
f 36//24 34//24 37//24 39//24
f 34//25 35//25 38//25 37//25
f 35//26 17//26 40//26 38//26
