# Blender 4.1.1
# www.blender.org
o _Log01.col
v 0.861829 0.274746 -0.289970
v -1.057033 0.009050 0.140436
v -1.084451 0.241552 0.303898
v 0.861829 0.024573 -0.139273
v 0.861829 0.247697 0.312982
v -1.065253 0.285136 -0.324102
v -1.055459 0.007578 -0.135254
v -1.070979 0.563207 0.152135
v 0.861829 0.014785 0.129938
v 0.861829 0.508681 0.172840
v -1.055104 0.532640 -0.154154
v 0.861829 0.532613 -0.136531
vn 0.0033 -0.5625 -0.8268
vn 0.0030 -1.0000 0.0054
vn 0.0062 -0.5746 0.8184
vn -0.0056 0.4269 0.9043
vn 0.0291 0.9948 -0.0978
vn 0.0076 0.5658 -0.8245
vn -0.9994 -0.0115 -0.0321
vn 1.0000 -0.0000 -0.0000
vn 0.0124 -0.5160 -0.8565
vn 0.0088 -0.9993 -0.0363
vn -0.0017 -0.6179 0.7862
vn 0.0039 0.4731 0.8810
vn -0.0007 0.9970 0.0771
vn 0.0180 0.5113 -0.8592
s 0
f 6//1 4//1 7//1
f 7//2 9//2 2//2
f 9//3 3//3 2//3
f 5//4 8//4 3//4
f 10//5 11//5 8//5
f 12//6 6//6 11//6
f 6//7 7//7 2//7 3//7 8//7 11//7
f 4//8 1//8 12//8 10//8 5//8 9//8
f 6//9 1//9 4//9
f 7//10 4//10 9//10
f 9//11 5//11 3//11
f 5//12 10//12 8//12
f 10//13 12//13 11//13
f 12//14 1//14 6//14
