# Blender 4.1.1
# www.blender.org
o _Boulder02.col
v -0.401497 0.005550 0.094900
v -0.099204 0.108032 0.462286
v -0.205845 0.282013 0.409630
v -0.177059 0.137265 -0.337886
v -0.236347 -0.268231 -0.313057
v -0.219113 -0.094413 0.131871
v 0.112837 0.189068 0.285509
v 0.175687 0.333001 -0.042571
v 0.293652 0.177024 -0.177241
v 0.226820 -0.294538 -0.075965
v 0.172836 -0.094695 0.398378
v 0.454232 0.013891 0.084887
vn -0.7157 -0.2402 0.6559
vn -0.4791 -0.6602 0.5784
vn -0.7106 0.6851 -0.1600
vn -0.8955 0.1044 -0.4326
vn -0.5043 -0.7976 0.3311
vn -0.3948 -0.7126 0.5799
vn 0.4369 0.4951 0.7510
vn -0.3491 0.9174 -0.1911
vn 0.3292 -0.1056 -0.9384
vn -0.2363 -0.9019 0.3615
vn 0.4866 0.4098 0.7715
vn 0.4034 0.8070 0.4313
vn 0.1710 0.7148 -0.6781
vn 0.4303 -0.2474 -0.8681
vn -0.2409 -0.9039 0.3534
vn 0.6083 0.4011 0.6849
vn 0.5965 0.6867 0.4155
vn 0.7653 0.6398 -0.0707
vn 0.7551 -0.2382 -0.6108
vn 0.6539 -0.6677 0.3557
s 0
f 1//1 2//1 3//1
f 2//2 1//2 6//2
f 1//3 3//3 4//3
f 1//4 4//4 5//4
f 1//5 5//5 6//5
f 2//6 6//6 11//6
f 3//7 2//7 7//7
f 4//8 3//8 8//8
f 5//9 4//9 9//9
f 6//10 5//10 10//10
f 2//11 11//11 7//11
f 3//12 7//12 8//12
f 4//13 8//13 9//13
f 5//14 9//14 10//14
f 6//15 10//15 11//15
f 7//16 11//16 12//16
f 8//17 7//17 12//17
f 9//18 8//18 12//18
f 10//19 9//19 12//19
f 11//20 10//20 12//20
