# Blender 4.1.1
# www.blender.org
o _Boulder01.col
v -0.167772 -0.042574 0.252089
v 0.201427 0.016408 0.297643
v 0.029528 0.237946 0.281832
v -0.336170 0.174702 0.017230
v -0.346420 -0.118922 -0.031511
v -0.012237 -0.190411 0.057924
v 0.175738 0.189538 0.087696
v -0.023813 0.320547 -0.081489
v -0.127210 0.110267 -0.264373
v -0.029657 -0.185687 -0.204614
v 0.290789 -0.076882 0.035594
v 0.141885 0.090989 -0.220936
vn -0.1190 -0.0215 0.9927
vn 0.0465 -0.7765 0.6284
vn -0.5895 0.3368 0.7342
vn -0.8370 -0.0610 0.5437
vn -0.2955 -0.8593 0.4175
vn 0.3457 -0.8406 0.4171
vn 0.7130 0.5813 0.3921
vn -0.3415 0.9044 0.2558
vn -0.7821 0.1285 -0.6098
vn -0.2082 -0.9781 -0.0038
vn 0.9149 0.3591 0.1842
vn 0.4640 0.8761 0.1310
vn -0.4907 0.6966 -0.5235
vn -0.5053 -0.3277 -0.7983
vn 0.3480 -0.9367 -0.0399
vn 0.8759 0.4235 -0.2313
vn 0.6844 0.6695 -0.2888
vn 0.1693 0.5981 -0.7834
vn 0.1472 -0.1489 -0.9778
vn 0.6305 -0.4291 -0.6468
s 0
f 1//1 2//1 3//1
f 2//2 1//2 6//2
f 1//3 3//3 4//3
f 1//4 4//4 5//4
f 1//5 5//5 6//5
f 2//6 6//6 11//6
f 3//7 2//7 7//7
f 4//8 3//8 8//8
f 5//9 4//9 9//9
f 6//10 5//10 10//10
f 2//11 11//11 7//11
f 3//12 7//12 8//12
f 4//13 8//13 9//13
f 5//14 9//14 10//14
f 6//15 10//15 11//15
f 7//16 11//16 12//16
f 8//17 7//17 12//17
f 9//18 8//18 12//18
f 10//19 9//19 12//19
f 11//20 10//20 12//20
