# Blender 4.1.1
# www.blender.org
o _Lamp01.col
v -0.095744 -0.002781 0.095744
v -0.095744 -0.002781 -0.095744
v 0.146700 0.329584 -0.146700
v -0.000000 0.523530 0.000000
v -0.146700 0.329584 0.146700
v 0.095744 -0.002781 -0.095744
v 0.095744 -0.002781 0.095744
v 0.146700 0.329584 0.146700
v -0.146700 0.329584 -0.146700
vn -0.0000 -1.0000 -0.0000
vn 0.7975 0.6033 -0.0000
vn -0.7975 0.6033 -0.0000
vn -0.0000 0.6033 0.7975
vn -0.0000 0.6033 -0.7975
vn -0.9885 -0.1515 -0.0000
vn -0.0000 -0.1515 -0.9885
vn 0.9885 -0.1515 -0.0000
vn -0.0000 -0.1515 0.9885
s 0
f 2//1 6//1 7//1 1//1
f 8//2 3//2 4//2
f 9//3 5//3 4//3
f 5//4 8//4 4//4
f 3//5 9//5 4//5
f 2//6 1//6 5//6 9//6
f 6//7 2//7 9//7 3//7
f 7//8 6//8 3//8 8//8
f 1//9 7//9 8//9 5//9
