# Blender 4.1.1
# www.blender.org
o _LampPostHanging.col
v -0.094852 0.330877 0.094852
v -0.094852 3.098361 0.094852
v -0.094852 0.379027 -0.094852
v 0.829143 2.638325 0.067658
v 0.094852 0.330877 0.094852
v 0.829143 2.828028 -0.067658
v 0.094852 0.330877 -0.094852
v 0.094852 3.098361 -0.094852
v 0.829143 2.638325 -0.067658
v -0.298064 2.638325 -0.067658
v -0.298063 2.638325 0.067658
v -0.298063 2.828029 -0.067658
v 0.829143 2.828028 0.067658
v -0.094852 3.098361 -0.094852
v 0.094852 3.098361 0.094852
v -0.298063 2.828029 0.067658
v 0.072927 2.436590 0.050509
v 0.070298 2.271360 -0.050509
v 0.072927 2.436590 -0.050509
v 0.288165 2.651828 -0.050509
v 0.288165 2.651828 0.050509
v 0.452394 2.653455 -0.050509
v 0.070298 2.271360 0.050509
v 0.452394 2.653455 0.050509
v 0.475088 -0.046267 -0.072206
v 0.144660 -0.034950 0.465566
v -0.237727 -0.085590 0.345769
v -0.460724 -0.065260 -0.318574
v -0.138093 -0.061094 -0.558423
v 0.391533 0.251821 -0.080620
v -0.053047 0.157826 0.444707
v -0.352853 0.270454 0.094306
v -0.294161 0.412858 -0.194999
v 0.260054 0.163860 -0.433625
v 0.421666 0.183243 0.267545
v 0.004051 0.475059 -0.001083
v 0.143685 0.357860 -0.206988
v -0.049755 0.306236 -0.371288
vn -1.0000 -0.0000 -0.0000
vn -0.0000 -0.0000 -1.0000
vn 1.0000 -0.0000 -0.0000
vn -0.0000 -0.0000 1.0000
vn -0.0000 -1.0000 -0.0000
vn -0.0000 1.0000 -0.0000
vn -0.7071 0.7071 -0.0000
vn 0.7071 -0.7071 -0.0000
vn 0.1046 -0.9909 0.0851
vn 0.1029 0.9079 -0.4064
vn 0.0311 -0.9987 -0.0410
vn 0.0184 -0.9998 0.0073
vn 0.4631 0.8679 -0.1800
vn 0.7286 -0.5090 0.4584
vn -0.2727 -0.1774 0.9456
vn -0.9455 -0.0834 0.3148
vn -0.5541 0.3839 -0.7386
vn 0.5204 -0.5665 -0.6390
vn 0.3011 0.4024 0.8646
vn -0.6938 0.2521 0.6746
vn -0.9419 0.3349 -0.0262
vn 0.0265 0.4487 -0.8933
vn 0.8892 0.2382 -0.3906
vn 0.1762 0.7912 0.5856
vn -0.3142 0.7921 0.5234
vn -0.3981 0.8525 0.3388
vn 0.2549 0.7954 -0.5500
vn 0.9627 0.2690 -0.0303
vn 0.5217 0.7617 -0.3841
vn -0.3586 0.4908 -0.7940
vn 0.5142 0.8488 0.1227
vn 0.1000 0.8924 -0.4401
s 0
f 1//1 2//1 14//1 3//1
f 3//2 14//2 8//2 7//2
f 7//3 8//3 15//3 5//3
f 5//4 15//4 2//4 1//4
f 12//1 10//1 11//1 16//1
f 9//3 6//3 13//3 4//3
f 11//4 4//4 13//4 16//4
f 10//5 9//5 4//5 11//5
f 8//6 14//6 2//6 15//6
f 12//2 6//2 9//2 10//2
f 16//6 13//6 6//6 12//6
f 21//4 17//4 23//4 24//4
f 20//7 19//7 17//7 21//7
f 22//2 18//2 19//2 20//2
f 24//8 23//8 18//8 22//8
f 25//9 26//9 27//9
f 37//10 38//10 33//10
f 25//11 27//11 28//11
f 25//12 28//12 29//12
f 37//13 36//13 30//13
f 26//14 25//14 35//14
f 27//15 26//15 31//15
f 28//16 27//16 32//16
f 29//17 28//17 33//17
f 25//18 29//18 34//18
f 26//19 35//19 31//19
f 27//20 31//20 32//20
f 28//21 32//21 33//21
f 29//22 38//22 34//22
f 25//23 34//23 30//23
f 31//24 35//24 36//24
f 32//25 31//25 36//25
f 33//26 32//26 36//26
f 34//27 38//27 37//27
f 30//28 35//28 25//28
f 37//29 30//29 34//29
f 38//30 29//30 33//30
f 30//31 36//31 35//31
f 33//32 36//32 37//32
