# Blender 4.1.1
# www.blender.org
o _LampPostStanding.col
v -0.094852 0.392282 0.094852
v -0.094852 2.006779 0.094852
v -0.094852 0.396081 -0.094852
v 0.094852 0.428628 0.094852
v 0.094852 0.423373 -0.094852
v 0.094852 2.006779 -0.094852
v -0.094852 2.006779 -0.094852
v 0.094852 2.006779 0.094852
v 0.013821 0.530553 -0.030135
v 0.410865 0.273744 0.243937
v 0.290712 0.228266 -0.348103
v -0.388205 0.259817 -0.175225
v -0.499023 0.188702 0.135154
v -0.005178 0.355220 0.435529
v -0.288777 -0.066290 -0.343941
v -0.329890 -0.056670 0.385869
v 0.421095 -0.068397 0.340183
v 0.254363 -0.057173 -0.339539
vn -1.0000 -0.0000 -0.0000
vn -0.0000 -0.0000 -1.0000
vn 1.0000 -0.0000 -0.0000
vn -0.0000 -0.0000 1.0000
vn -0.0000 1.0000 -0.0000
vn 0.9704 -0.0381 -0.2387
vn -0.9296 -0.0999 -0.3548
vn 0.6204 0.7623 -0.1845
vn -0.5565 0.8308 -0.0083
vn -0.1612 0.6414 -0.7501
vn -0.4619 0.8361 0.2960
vn 0.3307 0.8787 0.3443
vn -0.5704 0.3607 0.7379
vn 0.4452 0.2548 0.8584
vn -0.8045 -0.5928 -0.0375
vn 0.0167 -0.9998 0.0141
vn 0.9736 -0.1296 -0.1876
vn 0.0574 -0.1639 0.9848
vn -0.2089 0.3984 -0.8931
vn 0.0086 -0.0311 -0.9995
vn -0.0164 -0.9998 -0.0125
s 0
f 1//1 2//1 7//1 3//1
f 3//2 7//2 6//2 5//2
f 5//3 6//3 8//3 4//3
f 4//4 8//4 2//4 1//4
f 6//5 7//5 2//5 8//5
f 17//6 18//6 10//6
f 15//7 13//7 12//7
f 10//8 11//8 9//8
f 12//9 13//9 9//9
f 11//10 12//10 9//10
f 13//11 14//11 9//11
f 14//12 10//12 9//12
f 16//13 14//13 13//13
f 17//14 10//14 14//14
f 15//15 16//15 13//15
f 18//16 16//16 15//16
f 18//17 11//17 10//17
f 16//18 17//18 14//18
f 15//19 12//19 11//19
f 18//20 15//20 11//20
f 18//21 17//21 16//21
