# Blender 4.1.1
# www.blender.org
o _BarrelClosed.col
v -0.093962 0.000000 -0.226844
v -0.093962 0.700000 -0.226844
v 0.093962 0.000000 -0.226844
v 0.093962 0.700000 -0.226844
v 0.226844 0.000000 -0.093962
v 0.226844 0.700000 -0.093962
v 0.226844 0.000000 0.093962
v 0.226844 0.700000 0.093962
v 0.093962 0.000000 0.226844
v 0.093962 0.700000 0.226844
v -0.093962 0.000000 0.226844
v -0.093962 0.700000 0.226844
v -0.226844 0.000000 0.093962
v -0.226844 0.700000 0.093962
v -0.226844 0.000000 -0.093962
v -0.226844 0.700000 -0.093962
v -0.114805 0.233333 -0.277164
v -0.114805 0.466667 -0.277164
v 0.114805 0.466667 -0.277164
v 0.114805 0.233333 -0.277164
v 0.277164 0.466667 -0.114805
v 0.277164 0.233333 -0.114805
v 0.277164 0.466667 0.114805
v 0.277164 0.233333 0.114805
v 0.114805 0.466667 0.277164
v 0.114805 0.233333 0.277164
v -0.114805 0.466667 0.277164
v -0.114805 0.233333 0.277164
v -0.277164 0.466667 0.114805
v -0.277164 0.233333 0.114805
v -0.277164 0.466667 -0.114805
v -0.277164 0.233333 -0.114805
vn -0.0000 0.2108 -0.9775
vn 0.6912 0.2108 -0.6912
vn 0.9775 0.2108 -0.0000
vn 0.6912 0.2108 0.6912
vn -0.0000 0.2108 0.9775
vn -0.6912 0.2108 0.6912
vn -0.0000 1.0000 -0.0000
vn -0.9775 0.2108 -0.0000
vn -0.6912 0.2108 -0.6912
vn -0.0000 -1.0000 -0.0000
vn -0.6912 -0.2108 -0.6912
vn -0.7071 -0.0000 -0.7071
vn -0.9775 -0.2108 -0.0000
vn -1.0000 -0.0000 -0.0000
vn -0.6912 -0.2108 0.6912
vn -0.7071 -0.0000 0.7071
vn -0.0000 -0.2108 0.9775
vn -0.0000 -0.0000 1.0000
vn 0.6912 -0.2108 0.6912
vn 0.7071 -0.0000 0.7071
vn 0.9775 -0.2108 -0.0000
vn 1.0000 -0.0000 -0.0000
vn 0.6912 -0.2108 -0.6912
vn 0.7071 -0.0000 -0.7071
vn -0.0000 -0.2108 -0.9775
vn -0.0000 -0.0000 -1.0000
s 0
f 18//1 2//1 4//1 19//1
f 19//2 4//2 6//2 21//2
f 21//3 6//3 8//3 23//3
f 23//4 8//4 10//4 25//4
f 25//5 10//5 12//5 27//5
f 27//6 12//6 14//6 29//6
f 4//7 2//7 16//7 14//7 12//7 10//7 8//7 6//7
f 29//8 14//8 16//8 31//8
f 31//9 16//9 2//9 18//9
f 1//10 3//10 5//10 7//10 9//10 11//10 13//10 15//10
f 15//11 32//11 17//11 1//11
f 32//12 31//12 18//12 17//12
f 13//13 30//13 32//13 15//13
f 30//14 29//14 31//14 32//14
f 11//15 28//15 30//15 13//15
f 28//16 27//16 29//16 30//16
f 9//17 26//17 28//17 11//17
f 26//18 25//18 27//18 28//18
f 7//19 24//19 26//19 9//19
f 24//20 23//20 25//20 26//20
f 5//21 22//21 24//21 7//21
f 22//22 21//22 23//22 24//22
f 3//23 20//23 22//23 5//23
f 20//24 19//24 21//24 22//24
f 1//25 17//25 20//25 3//25
f 17//26 18//26 19//26 20//26
