# Blender 4.1.1
# www.blender.org
o _MeadTub.col
v -0.941496 0.000000 -0.389980
v -0.876506 1.500000 -0.363061
v -0.389980 0.000000 -0.941496
v -0.363061 1.500000 -0.876506
v 0.389980 0.000000 -0.941496
v 0.363061 1.500000 -0.876506
v 0.876506 1.500000 -0.363061
v 0.941496 0.000000 -0.389980
v 0.941496 0.000000 0.389980
v 0.876506 1.500000 0.363061
v 0.389980 0.000000 0.941496
v 0.363061 1.500000 0.876506
v -0.389980 0.000000 0.941496
v -0.363061 1.500000 0.876506
v -0.941496 0.000000 0.389980
v -0.876506 1.500000 0.363061
v -0.339969 1.500000 -0.820757
v 0.339969 1.500000 -0.820757
v 0.820757 1.500000 -0.339969
v 0.820757 1.500000 0.339969
v 0.339969 1.500000 0.820757
v -0.339969 1.500000 0.820757
v -0.820757 1.500000 0.339969
v -0.820757 1.500000 -0.339969
v -0.339969 0.131067 -0.820757
v 0.339969 0.131067 -0.820757
v 0.820757 0.131067 -0.339969
v 0.820757 0.131067 0.339969
v 0.339969 0.131067 0.820757
v -0.339969 0.131067 0.820757
v -0.820757 0.131067 0.339969
v -0.820757 0.131067 -0.339969
vn -0.7064 0.0433 -0.7064
vn -0.0000 0.0433 -0.9991
vn 0.7064 0.0433 -0.7064
vn 0.9991 0.0433 -0.0000
vn 0.7064 0.0433 0.7064
vn -0.0000 0.0433 0.9991
vn -0.7064 0.0433 0.7064
vn -0.9991 0.0433 -0.0000
vn -0.0000 -1.0000 -0.0000
vn -0.0000 1.0000 -0.0000
vn 0.7071 -0.0000 0.7071
vn -0.7071 -0.0000 -0.7071
vn -0.0000 -0.0000 1.0000
vn -0.0000 -0.0000 -1.0000
vn -0.7071 -0.0000 0.7071
vn 0.7071 -0.0000 -0.7071
vn -1.0000 -0.0000 -0.0000
vn 1.0000 -0.0000 -0.0000
s 0
f 1//1 2//1 4//1 3//1
f 3//2 4//2 6//2 5//2
f 5//3 6//3 7//3 8//3
f 8//4 7//4 10//4 9//4
f 9//5 10//5 12//5 11//5
f 11//6 12//6 14//6 13//6
f 13//7 14//7 16//7 15//7
f 15//8 16//8 2//8 1//8
f 1//9 3//9 5//9 8//9 9//9 11//9 13//9 15//9
f 12//10 10//10 20//10 21//10
f 10//10 7//10 19//10 20//10
f 7//10 6//10 18//10 19//10
f 2//10 16//10 23//10 24//10
f 6//10 4//10 17//10 18//10
f 4//10 2//10 24//10 17//10
f 16//10 14//10 22//10 23//10
f 14//10 12//10 21//10 22//10
f 25//10 32//10 31//10 30//10 29//10 28//10 27//10 26//10
f 17//11 24//11 32//11 25//11
f 21//12 20//12 28//12 29//12
f 18//13 17//13 25//13 26//13
f 22//14 21//14 29//14 30//14
f 19//15 18//15 26//15 27//15
f 23//16 22//16 30//16 31//16
f 20//17 19//17 27//17 28//17
f 24//18 23//18 31//18 32//18
